<?xml version="1.0" encoding="UTF-8"?>
<!DOCTYPE svg PUBLIC "-//W3C//DTD SVG 1.1//EN" "http://www.w3.org/Graphics/SVG/1.1/DTD/svg11.dtd">
<!-- Creator: CorelDRAW -->
<svg xmlns="http://www.w3.org/2000/svg" xml:space="preserve" width="297mm" height="100mm" style="shape-rendering:geometricPrecision; text-rendering:geometricPrecision; image-rendering:optimizeQuality; fill-rule:evenodd; clip-rule:evenodd"
viewBox="0 0 297 100"
 xmlns:xlink="http://www.w3.org/1999/xlink">
 <defs>
  <style type="text/css">
   <![CDATA[
    .str1 {stroke:#1F1A17;stroke-width:0.0762}
    .str0 {stroke:#1F1A17;stroke-width:0.25;stroke-dasharray:0.500000 1.250000}
    .fil2 {fill:none}
    .fil3 {fill:#00923F}
    .fil0 {fill:#0093DD}
    .fil4 {fill:#974578}
    .fil7 {fill:#AAA9A9}
    .fil8 {fill:#DC8228}
    .fil6 {fill:#DEDEDD}
    .fil5 {fill:#E88B29}
    .fil1 {fill:#F0B700}
    .fil9 {fill:white}
    .fil10 {fill:#1F1A17;fill-rule:nonzero}
   ]]>
  </style>
 </defs>
 <g id="Слой_x0020_1">
  <metadata id="CorelCorpID_0Corel-Layer"/>
  <polygon class="fil0" points="88.9162,65.5847 92.6179,56.0254 95.6112,65.5753 93.7459,65.6058 93.741,76.5563 95.246,76.5563 92.2922,84.9961 89.4526,76.5563 90.9769,76.5558 91.0261,65.5847 "/>
  <g id="_45637616">
   <rect id="_48149232" class="fil1" x="19.2752" y="73.1287" width="2.32092" height="7.59579"/>
   <rect id="_48145048" class="fil1" x="19.2899" y="88.3972" width="2.32092" height="7.59579"/>
   <rect id="_47871848" class="fil1" transform="matrix(4.22406E-014 -1.59492 1.59492 4.22406E-014 8.80588 85.63)" width="1.4552" height="4.7625"/>
   <rect id="_45562480" class="fil1" transform="matrix(4.22406E-014 -1.59492 1.59492 4.22406E-014 24.1062 85.537)" width="1.4552" height="4.7625"/>
   <rect id="_45562600" class="fil1" transform="matrix(1.87123E-014 -2.17482 0.706536 5.7599E-014 18.6334 86.1549)" width="1.4552" height="4.7625"/>
   <rect id="_48211496" class="fil1" transform="matrix(1.12778 -1.12778 0.770724 0.770724 13.1519 79.0848)" width="1.4552" height="4.7625"/>
   <rect id="_45612080" class="fil1" transform="matrix(1.12778 -1.12778 0.770724 0.770724 22.2535 88.1041)" width="1.4552" height="4.7625"/>
   <rect id="_45678536" class="fil1" transform="matrix(-1.12778 -1.12778 -0.770724 0.770724 27.4947 78.9686)" width="1.4552" height="4.7625"/>
   <rect id="_45638096" class="fil1" transform="matrix(-1.12778 -1.12778 -0.770724 0.770724 18.3938 88.1274)" width="1.4552" height="4.7625"/>
   <ellipse id="_45678576" class="fil2" cx="20.3159" cy="84.5724" rx="3.74821" ry="3.74806"/>
  </g>
  <polygon class="fil0" points="41.0963,74.3812 44.7979,64.8219 47.7912,74.3718 45.926,74.4023 45.921,85.3528 47.426,85.3528 44.4722,93.7926 41.6326,85.3528 43.1569,85.3523 43.2062,74.3812 "/>
  <polygon class="fil3" points="39.2122,76.4608 38.126,66.2675 45.1598,73.3869 43.5155,74.268 48.5252,84.0054 49.8632,83.3163 51.1017,92.1719 44.7128,85.969 46.0677,85.2707 41.088,75.4947 "/>
  <polygon class="fil4" points="39.0641,81.4447 30.7021,75.5152 40.6942,74.9512 40.267,76.7671 50.883,79.4531 51.2515,77.994 58.7112,82.9243 49.8331,83.611 50.2058,82.133 39.5807,79.399 "/>
  <polygon class="fil5" points="43.9323,85.2742 34.7438,89.8188 38.9911,80.7567 40.3866,81.9948 47.7904,73.9265 46.6811,72.9094 54.5618,68.6846 50.9514,76.8245 49.8275,75.7948 42.3771,83.8483 "/>
  <polygon class="fil0" points="65.9527,69.9317 69.6544,60.3724 72.6477,69.9223 70.7824,69.9528 70.7775,80.9033 72.2825,80.9033 69.3287,89.3431 66.4891,80.9033 68.0134,80.9028 68.0626,69.9317 "/>
  <polygon class="fil3" points="64.0687,72.0113 62.9824,61.818 70.0163,68.9374 68.372,69.8185 73.3817,79.5559 74.7196,78.8668 75.9582,87.7224 69.5693,81.5195 70.9241,80.8212 65.9444,71.0452 "/>
  <polygon class="fil4" points="63.9205,76.9952 55.5585,71.0657 65.5507,70.5017 65.1235,72.3176 75.7395,75.0036 76.108,73.5445 83.5677,78.4748 74.6895,79.1615 75.0623,77.6835 64.4371,74.9495 "/>
  <polygon class="fil5" points="68.7888,80.8247 59.6003,85.3693 63.8476,76.3072 65.243,77.5453 72.6469,69.477 71.5376,68.4599 79.4183,64.2351 75.8079,72.375 74.684,71.3453 67.2336,79.3988 "/>
  <polygon class="fil3" points="87.0114,67.8682 85.9252,57.6749 92.959,64.7943 91.3147,65.6754 96.3244,75.4128 97.6624,74.7237 98.9009,83.5793 92.512,77.3764 93.8669,76.6781 88.8872,66.9021 "/>
  <polygon class="fil4" points="86.8633,72.8521 78.5013,66.9226 88.4934,66.3586 88.0662,68.1745 98.6822,70.8605 99.0507,69.4013 106.51,74.3317 97.6322,75.0184 98.005,73.5404 87.3799,70.8064 "/>
  <polygon class="fil5" points="91.7315,76.6815 82.543,81.2262 86.7903,72.1641 88.1857,73.4022 95.5896,65.3339 94.4803,64.3168 102.361,60.092 98.7506,68.2319 97.6267,67.2022 90.1763,75.2557 "/>
  <line class="fil2 str0" x1="30.4744" y1="82.1601" x2="293.207" y2= "34.4073" />
  <polygon class="fil5" points="142.566,67.502 133.378,72.0466 137.625,62.9846 139.02,64.2226 146.424,56.1543 145.315,55.1373 153.196,50.9124 149.585,59.0524 148.461,58.0226 141.011,66.0761 "/>
  <polygon class="fil5" points="179.125,61.3282 169.937,65.8729 174.184,56.8108 175.579,58.0489 182.983,49.9806 181.874,48.9635 189.755,44.7387 186.144,52.8786 185.02,51.8489 177.57,59.9024 "/>
  <polygon class="fil5" points="220.441,54.2937 211.253,58.8383 215.5,49.7763 216.896,51.0143 224.299,42.946 223.19,41.929 231.071,37.7041 227.46,45.8441 226.337,44.8143 218.886,52.8678 "/>
  <polygon class="fil0" points="157.244,53.4288 160.945,43.8695 163.939,53.4194 162.073,53.4499 162.069,64.4004 163.574,64.4004 160.62,72.8402 157.78,64.4004 159.304,64.3999 159.354,53.4288 "/>
  <polygon class="fil0" points="197.054,45.3571 200.755,35.7978 203.749,45.3477 201.884,45.3781 201.879,56.3287 203.384,56.3287 200.43,64.7685 197.59,56.3287 199.114,56.3282 199.164,45.3571 "/>
  <polygon class="fil0" points="240.092,37.2278 243.794,27.6685 246.787,37.2184 244.922,37.2488 244.917,48.1994 246.422,48.1994 243.468,56.6392 240.629,48.1994 242.153,48.1989 242.202,37.2278 "/>
  <polygon class="fil0 str1" points="115.263,45.273 126.277,53.0837 126.277,80.3087 115.082,72.1771 "/>
  <path class="fil6 str1" d="M126.396 53.102l4.0916 -0.0116c0.0049,0 0.0089,0.0043 0.0089,0.0089l-0.0928 27.2094c0,0.0047 0.0885,0 0.0839,0l-4.2109 0c-0.0045,0 0,0.005 0,0l0 -27.1048c0,-0.0049 0.1143,-0.1019 0.1193,-0.1019z"/>
  <polygon class="fil7 str1" points="104.456,38.8055 108.764,38.743 130.416,53.0904 126.277,53.0837 "/>
  <polygon class="fil8 str1" points="104.456,38.8055 115.259,45.8743 115.082,72.1771 104.546,64.7451 "/>
  <polygon class="fil9 str1" points="118.892,55.1113 121.103,56.8316 121.103,71.0252 118.892,69.5375 "/>
  <polygon class="fil9 str1" points="111.244,49.1189 113.828,49.218 107.953,60.9854 105.586,60.7446 "/>
  <path class="fil10" d="M112.945 39.3202l-1.1861 0 0 -7.562c-0.2858,0.2723 -0.6594,0.5446 -1.123,0.817 -0.4659,0.2723 -0.8823,0.4771 -1.2514,0.6121l0 -1.1455c0.664,-0.3129 1.2446,-0.691 1.742,-1.1343 0.4951,-0.4457 0.8485,-0.8755 1.0555,-1.2941l0.763 0 0 9.7068z"/>
  <path class="fil10" d="M122.881 43.1187c0,-1.1433 0.117,-2.0638 0.3533,-2.7592 0.2341,-0.6977 0.5852,-1.2356 1.0488,-1.6137 0.4636,-0.3781 1.0466,-0.5671 1.7487,-0.5671 0.5199,0 0.9745,0.1057 1.3662,0.315 0.3916,0.2071 0.7134,0.5087 0.97,0.9025 0.2543,0.3939 0.4546,0.8733 0.5986,1.4382 0.1463,0.5649 0.2183,1.3256 0.2183,2.2843 0,1.1343 -0.117,2.0481 -0.3488,2.7458 -0.2341,0.6976 -0.5829,1.2355 -1.0465,1.6159 -0.4637,0.3803 -1.0488,0.5694 -1.7578,0.5694 -0.9317,0 -1.6632,-0.3331 -2.1943,-1.0015 -0.6369,-0.8035 -0.9565,-2.1156 -0.9565,-3.9296zm1.2198 0c0,1.5867 0.1868,2.6422 0.5582,3.1689 0.3713,0.5244 0.8282,0.7877 1.3728,0.7877 0.5469,0 1.0038,-0.2656 1.3752,-0.7922 0.3713,-0.5267 0.5581,-1.5822 0.5581,-3.1644 0,-1.5911 -0.1868,-2.6489 -0.5581,-3.1711 -0.3714,-0.5244 -0.8328,-0.7854 -1.3864,-0.7854 -0.5469,0 -0.9813,0.2318 -1.3076,0.6932 -0.4074,0.5874 -0.6122,1.6767 -0.6122,3.2633z"/>
  <polygon class="fil4 str1" points="261.84,17.3307 272.854,25.1414 272.854,52.3664 261.659,44.2347 "/>
  <path class="fil6 str1" d="M272.973 25.1597l4.0916 -0.0116c0.005,0 0.009,0.0043 0.009,0.0089l-0.0929 27.2094c0,0.0047 0.0885,0 0.0839,0l-4.2109 0c-0.0044,0 0,0.005 0,0l0 -27.1048c0,-0.0049 0.1144,-0.1019 0.1193,-0.1019z"/>
  <polygon class="fil7 str1" points="251.033,10.8632 255.341,10.8007 276.993,25.1481 272.854,25.1414 "/>
  <polygon class="fil3 str1" points="251.033,10.8632 261.836,17.932 261.659,44.2347 251.123,36.8027 "/>
  <polygon class="fil9 str1" points="263.539,33.4415 263.588,31.1381 271.002,34.9879 271,37.2074 "/>
  <polygon class="fil9 str1" points="256.433,31.9982 259.328,34.1157 256.008,22.0119 253.333,20.757 "/>
  <path class="fil10" d="M273.266 20.4901l-1.1861 0 0 -7.562c-0.2858,0.2723 -0.6594,0.5446 -1.123,0.817 -0.4659,0.2723 -0.8823,0.4771 -1.2514,0.6121l0 -1.1455c0.664,-0.3129 1.2446,-0.691 1.742,-1.1343 0.4951,-0.4457 0.8485,-0.8755 1.0555,-1.2941l0.763 0 0 9.7068z"/>
  <path class="fil10" d="M257.859 7.2052c0,-1.1433 0.117,-2.0638 0.3533,-2.7592 0.2341,-0.6977 0.5852,-1.2356 1.0488,-1.6137 0.4636,-0.3781 1.0466,-0.5671 1.7487,-0.5671 0.5199,0 0.9745,0.1057 1.3662,0.315 0.3916,0.2071 0.7134,0.5087 0.97,0.9025 0.2543,0.3939 0.4546,0.8733 0.5986,1.4382 0.1463,0.5649 0.2183,1.3256 0.2183,2.2843 0,1.1343 -0.117,2.0481 -0.3488,2.7458 -0.2341,0.6976 -0.5829,1.2355 -1.0465,1.6159 -0.4637,0.3803 -1.0488,0.5694 -1.7578,0.5694 -0.9317,0 -1.6632,-0.3331 -2.1943,-1.0015 -0.6369,-0.8035 -0.9565,-2.1156 -0.9565,-3.9296zm1.2198 0c0,1.5867 0.1868,2.6422 0.5582,3.1689 0.3713,0.5244 0.8282,0.7877 1.3728,0.7877 0.5469,0 1.0038,-0.2656 1.3752,-0.7922 0.3713,-0.5267 0.5581,-1.5822 0.5581,-3.1644 0,-1.5911 -0.1868,-2.6489 -0.5581,-3.1711 -0.3714,-0.5244 -0.8328,-0.7854 -1.3864,-0.7854 -0.5469,0 -0.9813,0.2318 -1.3076,0.6932 -0.4074,0.5874 -0.6122,1.6767 -0.6122,3.2633z"/>
  <polygon class="fil10" points="6.0226,59.8597 6.9815,59.8597 6.9815,62.2286 8.5163,59.8597 9.4959,59.8597 9.4959,63.6313 8.5369,63.6313 8.5369,61.22 6.9815,63.6313 6.0226,63.6313 "/>
  <path id="1" class="fil10" d="M13.8082 60.9751l-0.9844 0.177c-0.0328,-0.1964 -0.1079,-0.3443 -0.2255,-0.4437 -0.1176,-0.0994 -0.2692,-0.1492 -0.4559,-0.1492 -0.2497,0 -0.4473,0.0861 -0.5952,0.2571 -0.1479,0.1721 -0.2219,0.4594 -0.2219,0.8619 0,0.4474 0.0752,0.7638 0.2255,0.9481 0.1503,0.1843 0.3516,0.2764 0.605,0.2764 0.1903,0 0.3443,-0.0534 0.4655,-0.1613 0.1212,-0.1079 0.2061,-0.2933 0.2558,-0.5552l0.9808 0.1661c-0.1019,0.4498 -0.2983,0.7904 -0.5868,1.0196 -0.2885,0.2303 -0.6753,0.3443 -1.1614,0.3443 -0.5516,0 -0.9917,-0.1734 -1.319,-0.5213 -0.3286,-0.348 -0.4922,-0.8305 -0.4922,-1.4464 0,-0.6219 0.1648,-1.1068 0.4934,-1.4535 0.3297,-0.348 0.7747,-0.5213 1.336,-0.5213 0.4595,0 0.8244,0.0994 1.0959,0.297 0.2704,0.1976 0.4656,0.4995 0.5844,0.9044z"/>
  <polygon id="12" class="fil10" points="14.1174,59.8597 17.5301,59.8597 17.5301,60.6659 16.3226,60.6659 16.3226,63.6313 15.3248,63.6313 15.3248,60.6659 14.1174,60.6659 "/>
  <path id="123" class="fil10" d="M17.7992 61.6916c0,-0.331 0.0824,-0.6523 0.2449,-0.9626 0.1636,-0.3092 0.3952,-0.5468 0.6946,-0.7092 0.2995,-0.1637 0.6341,-0.2461 1.0038,-0.2461 0.5698,0 1.0378,0.1854 1.4027,0.5564 0.3649,0.371 0.5468,0.839 0.5468,1.4051 0,0.5698 -0.1843,1.0426 -0.5516,1.4184 -0.3686,0.3759 -0.8317,0.5626 -1.3906,0.5626 -0.3467,0 -0.6753,-0.0776 -0.9893,-0.234 -0.314,-0.1564 -0.5528,-0.3855 -0.7164,-0.6874 -0.1625,-0.3019 -0.2449,-0.6692 -0.2449,-1.1032zm1.0232 0.0533c0,0.3746 0.0885,0.6607 0.2667,0.8596 0.177,0.1988 0.3964,0.2982 0.6571,0.2982 0.2606,0 0.4788,-0.0994 0.6546,-0.2982 0.177,-0.1989 0.2655,-0.4874 0.2655,-0.8669 0,-0.3685 -0.0885,-0.6534 -0.2655,-0.8522 -0.1758,-0.1989 -0.394,-0.2983 -0.6546,-0.2983 -0.2607,0 -0.4801,0.0994 -0.6571,0.2983 -0.1782,0.1988 -0.2667,0.4861 -0.2667,0.8595z"/>
  <path id="1234" class="fil10" d="M22.1757 59.8597l1.0087 0 0 0.902c0,0.2061 0.0182,0.3589 0.0545,0.4595 0.0376,0.1006 0.1152,0.1879 0.2352,0.2594 0.1188,0.0728 0.2704,0.1079 0.4522,0.1079 0.1782,0 0.3771,-0.04 0.5977,-0.12l0 -1.6088 0.9978 0 0 3.7716 -0.9978 0 0 -1.5057c-0.3891,0.1042 -0.685,0.1564 -0.8886,0.1564 -0.3055,0 -0.5795,-0.0655 -0.8244,-0.1976 -0.2437,-0.131 -0.4098,-0.2995 -0.5007,-0.5044 -0.0897,-0.2049 -0.1346,-0.4776 -0.1346,-0.8183l0 -0.902z"/>
  <polygon id="12345" class="fil10" points="26.4759,59.8597 27.4749,59.8597 27.4749,61.2406 28.9018,61.2406 28.9018,59.8597 29.9044,59.8597 29.9044,63.6313 28.9018,63.6313 28.9018,62.0468 27.4749,62.0468 27.4749,63.6313 26.4759,63.6313 "/>
  <polygon id="123456" class="fil10" points="30.884,59.8597 31.8429,59.8597 31.8429,62.2286 33.3777,59.8597 34.3573,59.8597 34.3573,63.6313 33.3983,63.6313 33.3983,61.22 31.8429,63.6313 30.884,63.6313 "/>
  <path id="1234567" class="fil10" d="M35.3405 59.8597l0.9953 0 0 1.5409c0.1649,-0.0182 0.2825,-0.0691 0.3516,-0.1527 0.0679,-0.0825 0.1516,-0.2643 0.2485,-0.5432 0.1273,-0.3722 0.268,-0.6098 0.4195,-0.714 0.1515,-0.1043 0.3504,-0.1564 0.5965,-0.1564 0.0751,0 0.2073,0.006 0.394,0.0182l0.0036 0.6607c-0.2631,0 -0.4316,0.0242 -0.5043,0.0739 -0.074,0.0522 -0.1528,0.2073 -0.2376,0.4656 -0.1164,0.3479 -0.2837,0.5625 -0.5007,0.6425 0.314,0.0885 0.5807,0.3613 0.7989,0.8208 0.0109,0.0242 0.0243,0.0484 0.0388,0.0751l0.5577 1.0402 -1.0729 0 -0.4971 -1.0899c-0.1018,-0.2206 -0.1903,-0.3625 -0.2643,-0.4255 -0.0752,-0.0618 -0.1855,-0.0934 -0.3322,-0.0934l0 1.6088 -0.9953 0 0 -3.7716z"/>
  <path id="12345678" class="fil10" d="M9.3371 69.1014l-0.9844 0.177c-0.0328,-0.1964 -0.1079,-0.3443 -0.2255,-0.4437 -0.1176,-0.0994 -0.2692,-0.1492 -0.4559,-0.1492 -0.2497,0 -0.4473,0.0861 -0.5952,0.2571 -0.1479,0.1721 -0.2219,0.4594 -0.2219,0.8619 0,0.4474 0.0752,0.7638 0.2255,0.9481 0.1503,0.1843 0.3516,0.2764 0.605,0.2764 0.1903,0 0.3443,-0.0534 0.4655,-0.1613 0.1212,-0.1079 0.2061,-0.2933 0.2558,-0.5552l0.9808 0.1661c-0.1019,0.4498 -0.2983,0.7904 -0.5868,1.0196 -0.2885,0.2303 -0.6753,0.3443 -1.1614,0.3443 -0.5516,0 -0.9917,-0.1734 -1.319,-0.5213 -0.3286,-0.348 -0.4922,-0.8305 -0.4922,-1.4464 0,-0.6219 0.1648,-1.1068 0.4934,-1.4535 0.3297,-0.348 0.7747,-0.5213 1.336,-0.5213 0.4595,0 0.8244,0.0994 1.0959,0.297 0.2704,0.1976 0.4656,0.4995 0.5844,0.9044z"/>
  <path id="123456789" class="fil10" d="M10.1033 67.986l2.1846 0c0.4474,0 0.7832,0.0813 1.0051,0.2449 0.223,0.1637 0.3346,0.4098 0.3346,0.7383 0,0.211 -0.0619,0.394 -0.1831,0.5504 -0.1224,0.1564 -0.2752,0.2607 -0.4607,0.3128 0.2607,0.0643 0.4546,0.1831 0.5832,0.3589 0.1272,0.1758 0.1915,0.3673 0.1915,0.5758 0,0.2934 -0.1079,0.5322 -0.3225,0.7153 -0.2158,0.1831 -0.5346,0.2752 -0.9565,0.2752l-2.3762 0 0 -3.7716zm1.0063 1.5664l0.6425 0c0.3103,0 0.5346,-0.04 0.6728,-0.1176 0.1382,-0.0776 0.2073,-0.2013 0.2073,-0.3698 0,-0.1588 -0.0642,-0.2716 -0.1927,-0.3382 -0.1297,-0.0679 -0.3589,-0.1019 -0.6874,-0.1019l-0.6425 0 0 0.9275zm0 1.5663l0.788 0c0.2837,0 0.491,-0.0352 0.6219,-0.103 0.1297,-0.0692 0.1952,-0.1928 0.1952,-0.3698 0,-0.1843 -0.0752,-0.3116 -0.2243,-0.3819 -0.1491,-0.0703 -0.4389,-0.1043 -0.8705,-0.1043l-0.5103 0 0 0.959z"/>
  <path id="12345678910" class="fil10" d="M16.6523 70.5574l0.9954 0.1661c-0.1286,0.3649 -0.3298,0.6425 -0.6062,0.8329 -0.2752,0.1915 -0.6207,0.2861 -1.0353,0.2861 -0.6559,0 -1.1409,-0.2134 -1.4561,-0.6426 -0.2485,-0.3431 -0.3734,-0.7771 -0.3734,-1.2996 0,-0.6256 0.1637,-1.1153 0.491,-1.4693 0.3262,-0.354 0.7396,-0.531 1.239,-0.531 0.5614,0 1.0039,0.1854 1.3288,0.5564 0.3237,0.371 0.4788,0.9384 0.4655,1.7033l-2.501 0c0.0072,0.2959 0.0872,0.5262 0.2412,0.6899 0.154,0.1648 0.3467,0.2473 0.5759,0.2473 0.1564,0 0.2873,-0.0425 0.394,-0.1273 0.1067,-0.0861 0.1879,-0.2231 0.2412,-0.4122zm0.057 -1.0087c-0.0073,-0.2897 -0.0812,-0.5092 -0.2231,-0.6595 -0.1418,-0.1503 -0.3152,-0.2255 -0.5188,-0.2255 -0.2183,0 -0.3977,0.08 -0.5395,0.2389 -0.1419,0.1576 -0.2122,0.3734 -0.2098,0.6461l1.4912 0z"/>
  <polygon id="1234567891011" class="fil10" points="17.9714,67.986 21.3841,67.986 21.3841,68.7922 20.1766,68.7922 20.1766,71.7576 19.1788,71.7576 19.1788,68.7922 17.9714,68.7922 "/>
  <path id="123456789101112" class="fil10" d="M22.7261 69.1365l-0.9056 -0.1636c0.1018,-0.3649 0.2764,-0.6341 0.5249,-0.8099 0.2498,-0.1745 0.6183,-0.263 1.1081,-0.263 0.4461,0 0.7771,0.0533 0.9953,0.1588 0.217,0.1054 0.371,0.2388 0.4595,0.4013 0.0885,0.1624 0.1334,0.4594 0.1334,0.8934l-0.011 1.1651c0,0.331 0.0158,0.5759 0.0485,0.7335 0.0316,0.1563 0.0922,0.3261 0.1795,0.5055l-0.9881 0c-0.0254,-0.0667 -0.0582,-0.1649 -0.0958,-0.2946 -0.0157,-0.0594 -0.0278,-0.0982 -0.0351,-0.1176 -0.171,0.1661 -0.3528,0.2898 -0.5468,0.3734 -0.194,0.0824 -0.4013,0.1237 -0.6219,0.1237 -0.388,0 -0.6947,-0.1055 -0.9177,-0.3152 -0.2243,-0.211 -0.3359,-0.4777 -0.3359,-0.8002 0,-0.2121 0.051,-0.4025 0.1528,-0.5698 0.1018,-0.1673 0.2449,-0.2946 0.4279,-0.3831 0.1831,-0.0885 0.4486,-0.1661 0.7941,-0.2327 0.4656,-0.0873 0.7893,-0.1698 0.9687,-0.2449l0 -0.0994c0,-0.1928 -0.0473,-0.3286 -0.1419,-0.411 -0.0945,-0.0813 -0.2727,-0.1225 -0.5358,-0.1225 -0.1782,0 -0.3164,0.0352 -0.4158,0.1055 -0.0995,0.0691 -0.1795,0.1915 -0.2413,0.3673zm1.3348 0.8099c-0.1273,0.0424 -0.3298,0.0933 -0.6074,0.1527 -0.2764,0.0594 -0.457,0.1176 -0.5431,0.1734 -0.1297,0.0933 -0.1952,0.2097 -0.1952,0.3516 0,0.1406 0.0521,0.2606 0.1564,0.3625 0.1042,0.1018 0.2364,0.1527 0.3976,0.1527 0.1807,0 0.3516,-0.0594 0.5153,-0.177 0.1212,-0.0897 0.2,-0.2 0.2376,-0.331 0.0267,-0.0848 0.0388,-0.2473 0.0388,-0.4861l0 -0.1988z"/>
 </g>
</svg>
